<svg width="187" height="33" viewBox="0 0 187 33" fill="none" xmlns="http://www.w3.org/2000/svg">
<path d="M35 12.5747L22.4175 11.4979L17.5 0L12.5825 11.5153L0 12.5747L9.555 20.79L6.685 33L17.5 26.5216L28.315 33L25.4625 20.79L35 12.5747ZM17.5 23.2737L10.92 27.2163L12.67 19.7826L6.86 14.7805L14.525 14.1205L17.5 7.12105L20.4925 14.1379L28.1575 14.7979L22.3475 19.8L24.0975 27.2337L17.5 23.2737Z" fill="#666666"/>
<path d="M73 12.5747L60.4175 11.4979L55.5 0L50.5825 11.5153L38 12.5747L47.555 20.79L44.685 33L55.5 26.5216L66.315 33L63.4625 20.79L73 12.5747ZM55.5 23.2737L48.92 27.2163L50.67 19.7826L44.86 14.7805L52.525 14.1205L55.5 7.12105L58.4925 14.1379L66.1575 14.7979L60.3475 19.8L62.0975 27.2337L55.5 23.2737Z" fill="#666666"/>
<path d="M111 12.5747L98.4175 11.4979L93.5 0L88.5825 11.5153L76 12.5747L85.555 20.79L82.685 33L93.5 26.5216L104.315 33L101.462 20.79L111 12.5747ZM93.5 23.2737L86.92 27.2163L88.67 19.7826L82.86 14.7805L90.525 14.1205L93.5 7.12105L96.4925 14.1379L104.158 14.7979L98.3475 19.8L100.097 27.2337L93.5 23.2737Z" fill="#666666"/>
<path d="M149 12.5747L136.418 11.4979L131.5 0L126.582 11.5153L114 12.5747L123.555 20.79L120.685 33L131.5 26.5216L142.315 33L139.462 20.79L149 12.5747ZM131.5 23.2737L124.92 27.2163L126.67 19.7826L120.86 14.7805L128.525 14.1205L131.5 7.12105L134.493 14.1379L142.158 14.7979L136.347 19.8L138.097 27.2337L131.5 23.2737Z" fill="#666666"/>
<path d="M187 12.5747L174.418 11.4979L169.5 0L164.582 11.5153L152 12.5747L161.555 20.79L158.685 33L169.5 26.5216L180.315 33L177.462 20.79L187 12.5747ZM169.5 23.2737L162.92 27.2163L164.67 19.7826L158.86 14.7805L166.525 14.1205L169.5 7.12105L172.493 14.1379L180.158 14.7979L174.347 19.8L176.097 27.2337L169.5 23.2737Z" fill="#666666"/>
</svg>
